<mxfile host="65bd71144e">
    <diagram id="Z61JlZ08la65ryiDhfNh" name="Page-1">
        <mxGraphModel dx="734" dy="575" grid="1" gridSize="10" guides="1" tooltips="1" connect="1" arrows="1" fold="1" page="1" pageScale="1" pageWidth="827" pageHeight="1169" math="0" shadow="0">
            <root>
                <mxCell id="0"/>
                <mxCell id="1" parent="0"/>
                <mxCell id="4" value="" style="edgeStyle=none;html=1;" edge="1" parent="1" source="2" target="3">
                    <mxGeometry relative="1" as="geometry"/>
                </mxCell>
                <mxCell id="2" value="Начало" style="ellipse;whiteSpace=wrap;html=1;" vertex="1" parent="1">
                    <mxGeometry x="320" y="10" width="120" height="50" as="geometry"/>
                </mxCell>
                <mxCell id="6" value="" style="edgeStyle=none;html=1;exitX=0.5;exitY=1;exitDx=0;exitDy=0;" edge="1" parent="1" source="3" target="5">
                    <mxGeometry relative="1" as="geometry">
                        <mxPoint x="379" y="197" as="sourcePoint"/>
                    </mxGeometry>
                </mxCell>
                <mxCell id="3" value="arrayIn;&lt;br&gt;arrayOut;&lt;br&gt;arraySize = Size arrayIn;&lt;br&gt;i = 0;&lt;br&gt;j = 0;" style="whiteSpace=wrap;html=1;" vertex="1" parent="1">
                    <mxGeometry x="302" y="90" width="156" height="80" as="geometry"/>
                </mxCell>
                <mxCell id="8" value="" style="edgeStyle=none;html=1;align=center;startArrow=none;" edge="1" parent="1" source="9" target="7">
                    <mxGeometry relative="1" as="geometry">
                        <Array as="points">
                            <mxPoint x="379" y="327"/>
                        </Array>
                    </mxGeometry>
                </mxCell>
                <mxCell id="15" value="" style="edgeStyle=none;html=1;entryX=0;entryY=0.5;entryDx=0;entryDy=0;startArrow=none;" edge="1" parent="1" source="12" target="16">
                    <mxGeometry relative="1" as="geometry"/>
                </mxCell>
                <mxCell id="5" value="i &amp;lt; arraySize" style="rhombus;whiteSpace=wrap;html=1;" vertex="1" parent="1">
                    <mxGeometry x="329.5" y="217" width="99" height="80" as="geometry"/>
                </mxCell>
                <mxCell id="19" value="" style="edgeStyle=none;html=1;startArrow=none;" edge="1" parent="1" source="20" target="18">
                    <mxGeometry relative="1" as="geometry"/>
                </mxCell>
                <mxCell id="46" style="edgeStyle=none;html=1;entryX=0.5;entryY=1;entryDx=0;entryDy=0;" edge="1" parent="1" source="7" target="28">
                    <mxGeometry relative="1" as="geometry">
                        <Array as="points">
                            <mxPoint x="220" y="387"/>
                        </Array>
                    </mxGeometry>
                </mxCell>
                <mxCell id="7" value="size arrayIn[i] &amp;lt;=3" style="rhombus;whiteSpace=wrap;html=1;" vertex="1" parent="1">
                    <mxGeometry x="320" y="347" width="120" height="80" as="geometry"/>
                </mxCell>
                <mxCell id="52" value="" style="edgeStyle=none;html=1;" edge="1" parent="1" source="16" target="51">
                    <mxGeometry relative="1" as="geometry"/>
                </mxCell>
                <mxCell id="16" value="arrayOut;" style="shape=document;whiteSpace=wrap;html=1;boundedLbl=1;" vertex="1" parent="1">
                    <mxGeometry x="530" y="228.5" width="120" height="57" as="geometry"/>
                </mxCell>
                <mxCell id="26" style="edgeStyle=none;html=1;startArrow=none;" edge="1" parent="1" source="28">
                    <mxGeometry relative="1" as="geometry">
                        <mxPoint x="330" y="257" as="targetPoint"/>
                        <Array as="points">
                            <mxPoint x="220" y="257"/>
                        </Array>
                    </mxGeometry>
                </mxCell>
                <mxCell id="18" value="arrayOut[j] = arrayIn[i];&lt;br&gt;j = j+1;" style="whiteSpace=wrap;html=1;" vertex="1" parent="1">
                    <mxGeometry x="294.5" y="487" width="171" height="60" as="geometry"/>
                </mxCell>
                <mxCell id="20" value="Yes" style="text;html=1;strokeColor=none;fillColor=none;align=center;verticalAlign=middle;whiteSpace=wrap;rounded=0;" vertex="1" parent="1">
                    <mxGeometry x="350" y="437" width="60" height="30" as="geometry"/>
                </mxCell>
                <mxCell id="21" value="" style="edgeStyle=none;html=1;endArrow=none;" edge="1" parent="1" source="7" target="20">
                    <mxGeometry relative="1" as="geometry">
                        <mxPoint x="379.63855421686753" y="426.7590361445783" as="sourcePoint"/>
                        <mxPoint x="379.27272727272725" y="467" as="targetPoint"/>
                    </mxGeometry>
                </mxCell>
                <mxCell id="9" value="Yes" style="text;html=1;strokeColor=none;fillColor=none;align=center;verticalAlign=middle;whiteSpace=wrap;rounded=0;" vertex="1" parent="1">
                    <mxGeometry x="349" y="307" width="60" height="30" as="geometry"/>
                </mxCell>
                <mxCell id="23" value="" style="edgeStyle=none;html=1;align=center;endArrow=none;" edge="1" parent="1" source="5" target="9">
                    <mxGeometry relative="1" as="geometry">
                        <mxPoint x="379" y="297" as="sourcePoint"/>
                        <mxPoint x="379.3406593406594" y="347.4395604395604" as="targetPoint"/>
                        <Array as="points"/>
                    </mxGeometry>
                </mxCell>
                <mxCell id="12" value="No" style="text;html=1;strokeColor=none;fillColor=none;align=center;verticalAlign=middle;whiteSpace=wrap;rounded=0;" vertex="1" parent="1">
                    <mxGeometry x="455" y="242" width="31" height="30" as="geometry"/>
                </mxCell>
                <mxCell id="24" value="" style="edgeStyle=none;html=1;entryX=0;entryY=0.5;entryDx=0;entryDy=0;endArrow=none;" edge="1" parent="1" source="5" target="12">
                    <mxGeometry relative="1" as="geometry">
                        <mxPoint x="428.5" y="257" as="sourcePoint"/>
                        <mxPoint x="530" y="257" as="targetPoint"/>
                    </mxGeometry>
                </mxCell>
                <mxCell id="28" value="i = i + 1;" style="rounded=0;whiteSpace=wrap;html=1;" vertex="1" parent="1">
                    <mxGeometry x="180" y="297" width="80" height="60" as="geometry"/>
                </mxCell>
                <mxCell id="35" value="" style="edgeStyle=none;html=1;endArrow=none;" edge="1" parent="1" source="18" target="28">
                    <mxGeometry relative="1" as="geometry">
                        <mxPoint x="319" y="517" as="sourcePoint"/>
                        <mxPoint x="330" y="257" as="targetPoint"/>
                        <Array as="points">
                            <mxPoint x="230" y="517"/>
                            <mxPoint x="220" y="517"/>
                        </Array>
                    </mxGeometry>
                </mxCell>
                <mxCell id="47" value="No" style="text;html=1;strokeColor=none;fillColor=none;align=center;verticalAlign=middle;whiteSpace=wrap;rounded=0;" vertex="1" parent="1">
                    <mxGeometry x="240" y="360" width="60" height="30" as="geometry"/>
                </mxCell>
                <mxCell id="50" value="Блок-схема основной части: заполнение массива элементами длина которых меньше либо равна 3" style="text;html=1;strokeColor=none;fillColor=none;align=center;verticalAlign=middle;whiteSpace=wrap;rounded=0;" vertex="1" parent="1">
                    <mxGeometry x="486" y="20" width="254" height="110" as="geometry"/>
                </mxCell>
                <mxCell id="51" value="Конец" style="ellipse;whiteSpace=wrap;html=1;" vertex="1" parent="1">
                    <mxGeometry x="690" y="232.5" width="100" height="51.5" as="geometry"/>
                </mxCell>
            </root>
        </mxGraphModel>
    </diagram>
</mxfile>